<?xml version="1.0" standalone="no"?>
<!DOCTYPE svg PUBLIC "-//W3C//DTD SVG 20010904//EN"
 "http://www.w3.org/TR/2001/REC-SVG-20010904/DTD/svg10.dtd">
<svg version="1.0" xmlns="http://www.w3.org/2000/svg"
 width="32.000000pt" height="32.000000pt" viewBox="0 0 32.000000 32.000000"
 preserveAspectRatio="xMidYMid meet">

<g transform="translate(0.000000,32.000000) scale(0.100000,-0.100000)"
fill="#ffffff" stroke="#ffffff">
<path d="M30 301 c0 -10 -7 -21 -15 -25 -12 -4 -15 -22 -13 -83 l2 -78 3 78 4
77 124 0 125 0 0 -130 0 -131 -122 3 -123 3 -6 50 -6 50 1 -55 1 -55 155 0
155 0 0 155 0 155 -55 1 c-42 1 -45 0 -12 -3 l42 -4 2 -62 1 -62 7 65 c5 45 7
19 6 -85 -1 -126 -3 -150 -16 -150 -21 0 -25 36 -6 47 12 7 16 23 14 66 l-2
57 -3 -50 c-2 -27 -8 -54 -14 -60 -5 -5 -9 31 -9 98 l0 107 -115 0 c-94 0
-115 3 -115 15 0 11 18 15 83 18 l82 3 -87 2 c-80 2 -88 0 -88 -17z"/>
<path d="M20 215 l0 -45 115 0 115 0 0 45 0 45 -115 0 -115 0 0 -45z m220 0
l0 -35 -105 0 -105 0 0 35 0 35 105 0 105 0 0 -35z"/>
<path d="M41 214 c0 -16 3 -23 6 -16 4 10 8 10 19 1 11 -9 14 -6 13 17 0 16
-3 23 -6 16 -4 -10 -8 -10 -19 -1 -11 9 -14 6 -13 -17z"/>
<path d="M90 215 c0 -17 5 -25 18 -25 14 0 15 2 2 10 -13 9 -13 10 0 10 12 0
13 2 1 9 -11 7 -11 9 0 14 10 4 9 6 -3 6 -13 1 -18 -7 -18 -24z"/>
<path d="M130 223 c0 -25 16 -39 23 -21 4 10 6 10 6 1 2 -22 18 -14 23 10 3
17 0 23 -14 23 -10 0 -18 -5 -18 -11 0 -5 -5 -3 -10 5 -8 12 -10 11 -10 -7z"/>
<path d="M200 225 c0 -8 6 -15 13 -15 8 0 7 -4 -3 -10 -13 -8 -12 -10 3 -10 9
0 17 7 17 15 0 8 -6 15 -12 15 -9 0 -8 4 2 10 13 8 12 10 -2 10 -10 0 -18 -7
-18 -15z"/>
<path d="M20 95 l0 -55 50 0 50 0 0 55 0 55 -50 0 -50 0 0 -55z m80 0 c0 -45
0 -45 -35 -45 -35 0 -35 0 -35 45 0 45 0 45 35 45 35 0 35 0 35 -45z"/>
<path d="M168 143 c18 -2 45 -2 60 0 15 2 0 4 -33 4 -33 0 -45 -2 -27 -4z"/>
<path d="M168 123 c18 -2 45 -2 60 0 15 2 0 4 -33 4 -33 0 -45 -2 -27 -4z"/>
<path d="M168 103 c18 -2 45 -2 60 0 15 2 0 4 -33 4 -33 0 -45 -2 -27 -4z"/>
<path d="M168 83 c18 -2 45 -2 60 0 15 2 0 4 -33 4 -33 0 -45 -2 -27 -4z"/>
<path d="M168 63 c18 -2 45 -2 60 0 15 2 0 4 -33 4 -33 0 -45 -2 -27 -4z"/>
<path d="M168 43 c18 -2 45 -2 60 0 15 2 0 4 -33 4 -33 0 -45 -2 -27 -4z"/>
<path d="M78 23 c34 -2 88 -2 120 0 31 2 3 3 -63 3 -66 0 -92 -1 -57 -3z"/>
</g>
</svg>
